<svg width="89" height="44" viewBox="0 0 89 44" fill="none" xmlns="http://www.w3.org/2000/svg">
<path d="M15.1891 15.0857H11.1898C11.2181 14.7457 11.1999 14.438 11.1331 14.1668C11.0736 13.9089 10.9558 13.668 10.7888 13.4626C10.6184 13.2563 10.3972 13.098 10.1469 13.0031C9.84588 12.8913 9.52632 12.8377 9.20527 12.8453C8.50463 12.8453 7.88093 13.0193 7.32811 13.3695C6.77731 13.7135 6.31966 14.2093 5.95516 14.857C5.59066 15.4985 5.33147 16.2656 5.17959 17.1561C5.04392 18.0182 5.03784 18.7346 5.16339 19.3054C5.29299 19.8761 5.54612 20.3011 5.91871 20.5844C6.29739 20.8678 6.78946 21.0094 7.39291 21.0094C7.7979 21.0094 8.16443 20.9609 8.50058 20.8657C8.84077 20.7686 9.1425 20.633 9.40777 20.4549C9.93878 20.0996 10.3341 19.5754 10.5296 18.9674H14.5553C14.4034 19.5907 14.13 20.2282 13.7352 20.8799C12.8656 22.2936 11.557 23.384 10.0092 23.9845C9.10132 24.3309 8.13574 24.5012 7.16408 24.4864C5.78304 24.4864 4.59234 24.1848 3.58997 23.5817C2.59165 22.9786 1.86873 22.0962 1.41716 20.9366C0.971663 19.7769 0.882564 18.3643 1.15189 16.6966C1.42121 15.0857 1.94973 13.7378 2.7415 12.649C3.53125 11.5622 4.49312 10.7425 5.62509 10.192C6.74847 9.64334 7.98327 9.36079 9.23362 9.36631C10.1975 9.36631 11.0602 9.49381 11.8236 9.74679C12.5911 10.0018 13.235 10.3722 13.7575 10.8599C14.2839 11.3456 14.6727 11.9406 14.9218 12.651C15.1709 13.3593 15.26 14.1709 15.1891 15.0857ZM15.5496 24.286L17.3923 13.248H21.2459L20.9016 15.3447H21.015C21.3451 14.5696 21.7602 14.0009 22.2584 13.6427C22.5601 13.4178 22.9051 13.2577 23.2717 13.1724C23.6383 13.087 24.0185 13.0783 24.3886 13.1468C24.5506 13.1711 24.7126 13.2035 24.8686 13.248L24.2935 16.64C24.0688 16.5594 23.8347 16.5084 23.5969 16.4882C23.351 16.4566 23.1036 16.4397 22.8557 16.4376C22.471 16.4376 22.1126 16.5266 21.7764 16.7047C21.4413 16.8809 21.151 17.1315 20.9279 17.4374C20.6991 17.749 20.5452 18.1154 20.4683 18.5363L19.5185 24.286H15.5496ZM24.3299 24.286L26.1727 13.248H30.1416L28.2969 24.286H24.3299ZM28.3273 12.0965C28.0852 12.1059 27.844 12.0635 27.6198 11.972C27.3955 11.8806 27.1935 11.7422 27.0272 11.5662C26.8667 11.3984 26.7495 11.1941 26.6856 10.9709C26.6218 10.7477 26.6132 10.5124 26.6607 10.2851C26.7519 9.77401 27.0342 9.31672 27.4504 9.00607C27.8919 8.6519 28.3819 8.47582 28.9185 8.47582C29.4592 8.47582 29.8905 8.6519 30.2125 9.00607C30.3697 9.17545 30.4842 9.37983 30.5465 9.60228C30.6088 9.82472 30.6172 10.0588 30.5709 10.2851C30.4854 10.7954 30.2079 11.2537 29.7954 11.5662C29.3842 11.911 28.864 12.0989 28.3273 12.0965ZM38.7499 13.248L38.2619 16.1219H30.984L31.4721 13.248H38.7499ZM33.3128 10.6029H37.2818L35.601 20.7362C35.5761 20.8645 35.5809 20.9967 35.6152 21.1228C35.6476 21.224 35.7164 21.3009 35.8177 21.3535C35.921 21.4021 36.0607 21.4264 36.2328 21.4264C36.3482 21.4264 36.49 21.4102 36.6581 21.3818L37.0388 21.311L37.1542 24.0998C36.9517 24.1565 36.6824 24.2213 36.3401 24.2941C35.9542 24.377 35.562 24.4271 35.1677 24.4439C34.2382 24.4864 33.4809 24.3892 32.8956 24.1484C32.3165 23.9096 31.9135 23.5352 31.6887 23.0292C31.466 22.5152 31.4295 21.8756 31.5733 21.1086L33.3128 10.6029ZM45.5478 9.56667L43.5046 19.6858H40.2544L41.5504 9.56667H45.5478ZM41.2325 24.5167C40.9751 24.5249 40.7189 24.477 40.4818 24.3764C40.2448 24.2757 40.0324 24.1247 39.8596 23.9339C39.6868 23.7415 39.558 23.5139 39.4822 23.2668C39.4063 23.0197 39.3851 22.7591 39.4201 22.503C39.4789 21.9566 39.7239 21.4911 40.1613 21.1025C40.6027 20.714 41.1029 20.5197 41.6638 20.5197C42.1964 20.5197 42.6399 20.714 42.9943 21.1025C43.1696 21.2874 43.3013 21.5091 43.3797 21.7514C43.4582 21.9938 43.4815 22.2506 43.4478 22.503C43.4115 22.8732 43.275 23.2265 43.053 23.5251C42.8302 23.8266 42.5589 24.0674 42.2329 24.2496C41.9279 24.4231 41.5834 24.5151 41.2325 24.5167ZM49.7253 21.6692L50.5313 16.9537H51.0476L54.3565 13.248H58.8155L53.3784 19.0241H52.2566L49.7253 21.6692ZM45.726 24.286L48.1701 9.56667H52.1391L49.697 24.286H45.726ZM52.5421 24.286L50.7297 19.9145L53.8077 17.0994L57.0902 24.286H52.5441H52.5421ZM66.476 16.9274L65.988 19.9166H59.0828L59.5728 16.9274H66.476ZM77.8626 32.3814L66.7251 0L77.8626 13.3836L89 0L77.8626 32.3814Z" fill="#07BEB8"/>
<path d="M1 41.6547L82.0568 37.0752" stroke="#07BEB8" stroke-width="4"/>
</svg>
